<svg width="290" height="104" viewBox="0 0 290 104" fill="none" xmlns="http://www.w3.org/2000/svg">
<rect y="10.2632" width="92" height="85.6552" rx="8" fill="#FFC04D"/>
<path d="M24.4042 25.7684H58.4151L66.1625 33.5158V48.7006L63.0636 51.8771L68.5642 57.4552V71.6328L60.197 80H24.4042V25.7684ZM52.992 48.4682L55.781 45.6792V37.312L53.0695 34.6004H34.7082V48.4682H52.992ZM54.8514 71.168L58.1827 67.8366V60.2442L54.8514 56.9128H34.7082V71.168H54.8514Z" fill="white"/>
<path d="M113.186 23.1534H148.21L156.188 31.1315V46.7685L152.996 50.0396L158.661 55.7838V70.3837L150.044 79H113.186V23.1534ZM142.625 46.5292L145.497 43.6571V35.0408L142.705 32.2484H123.797V46.5292H142.625ZM144.54 69.905L147.97 66.4744V58.6559L144.54 55.2253H123.797V69.905H144.54ZM166.633 22.0365H177.164V79H166.633V22.0365ZM186.715 30.9719V25.866L190.385 22.1961H195.97L199.639 25.866V30.9719L195.97 34.6419H190.385L186.715 30.9719ZM187.912 39.2691H198.443V79H187.912V39.2691ZM206.857 71.1815V66.3148H217.228V68.5487L218.983 70.3837H231.908L233.663 68.5487V65.1181L231.828 63.2034H214.675L207.176 55.6242V46.9281L214.755 39.2691H235.498L243.237 47.0877V51.9543H232.865V49.7204L231.11 47.8855H219.302L217.547 49.7204V52.8319L219.382 54.7466H236.535L244.034 62.3258V71.341L236.455 79H214.595L206.857 71.1815ZM249.63 71.1815V66.3148H260.001V68.5487L261.756 70.3837H274.681L276.436 68.5487V65.1181L274.601 63.2034H257.448L249.949 55.6242V46.9281L257.528 39.2691H278.271L286.01 47.0877V51.9543H275.638V49.7204L273.883 47.8855H262.075L260.32 49.7204V52.8319L262.155 54.7466H279.308L286.808 62.3258V71.341L279.228 79H257.368L249.63 71.1815Z" fill="#FFC04D"/>
</svg>
